Coordinates
version=1
nRows=15
nColumns=34
inDegrees=yes

Units are S.I. units (second, meters, Newtons, ...)
If the header above contains a line with 'inDegrees', this indicates whether rotational values are in degrees (yes) or radians (no).

endheader
time	pelvis_tilt	pelvis_list	pelvis_rotation	pelvis_tx	pelvis_ty	pelvis_tz	hip_flexion_r	hip_adduction_r	hip_rotation_r	knee_angle_r	ankle_angle_r	subtalar_angle_r	mtp_angle_r	hip_flexion_l	hip_adduction_l	hip_rotation_l	knee_angle_l	ankle_angle_l	subtalar_angle_l	mtp_angle_l	lumbar_extension	lumbar_bending	lumbar_rotation	arm_flex_r	arm_add_r	arm_rot_r	elbow_flex_r	pro_sup_r	arm_flex_l	arm_add_l	arm_rot_l	elbow_flex_l	pro_sup_l
      5.81666670	    -17.53133729	     -0.41712928	      6.73026784	      0.84742460	      1.14621463	     -0.20225182	     30.67368741	     -8.88594328	    -13.08770526	     24.39768419	    -30.79154798	    -22.88522710	      0.00000000	     34.96355969	     -5.22769516	     -5.93339560	     27.36453053	    -28.10409460	    -14.71889354	      0.00000000	     -1.97367930	      0.08483860	     -0.35796801	    190.51524373	   -166.60166422	    188.73389023	     55.36109882	     85.82663123	     13.12004693	    -13.95376955	     16.74293693	     41.37311779	     69.28085968
      5.83333330	    -18.37045194	     -0.19510946	      6.37067621	      0.85471876	      1.10976535	     -0.20167373	     33.38234003	     -9.56215617	    -11.75160300	     26.77506558	    -29.07962735	    -22.25865795	      0.00000000	     37.03923409	     -5.25086110	     -6.08228941	     28.17979780	    -27.44326718	    -16.89778189	      0.00000000	     -3.20854803	     -0.31889085	     -0.74583491	    195.06981150	   -165.50824033	    190.00024255	     60.13344230	     87.01474959	     16.40057927	    -14.12765815	     16.55527752	     43.11452850	     70.29478525
      5.85000000	    -18.88659171	     -0.00088723	      6.34716253	      0.85572030	      1.07146687	     -0.20046242	     34.69837457	     -9.62885446	    -10.56481961	     27.24663706	    -27.48854639	    -19.27415955	      0.00000000	     37.86500059	     -5.24109356	     -6.07701203	     27.79963029	    -27.49320983	    -15.85287775	      0.00000000	     -4.27329990	     -0.90267613	     -1.20119121	    199.77666074	   -164.82747949	    190.54953257	     63.39393212	     87.65108188	     19.89549642	    -14.40069544	     17.13492380	     44.06864279	     70.94613445
      5.86666670	    -19.28009042	     -0.33482451	      5.92555125	      0.85783876	      1.01187009	     -0.20096278	     36.00273365	     -9.03936967	    -10.45272640	     28.28389127	    -22.95405075	    -18.20472115	      0.00000000	     38.91103520	     -5.87313758	     -5.04376556	     27.94097313	    -25.76357402	    -12.70167032	      0.00000000	     -4.45276836	     -0.78072553	     -0.72869461	    203.91316941	   -163.23875707	    190.65255809	     67.76714396	     87.99609716	     22.20203451	    -14.59687451	     18.00338487	     46.81928014	     71.55126590
      5.88333330	    -19.86991355	     -0.37911257	      5.70976057	      0.85241377	      0.96414256	     -0.19795977	     38.00500775	     -8.69087942	    -10.58204908	     31.83825592	    -11.59783624	    -20.16041817	      0.00000000	     41.09678565	     -6.36562189	     -3.44111397	     31.42311082	    -17.83836315	    -11.03913198	      0.00000000	     -5.32261710	     -1.26281396	     -0.67415484	    208.64129177	   -162.16965421	    190.41120214	     72.03530246	     88.06902873	     25.39925563	    -15.20835199	     20.24363582	     49.79996106	     72.22590763
      5.90000000	    -20.98433231	     -0.96472697	      6.19151207	      0.83325466	      0.90722687	     -0.19383259	     43.82328373	     -8.15577400	     -8.71272753	     40.89673187	      2.88038523	    -24.26025365	      0.00000000	     47.17163839	     -6.92602738	     -2.22676814	     40.66227897	     -4.91537246	    -12.00736203	      0.00000000	     -6.51883370	     -1.43594843	     -0.44306791	    215.35116595	   -160.18765983	    189.72829486	     75.81929581	     87.77751774	     30.64769688	    -16.48843107	     25.38210519	     54.98870418	     73.43862910
      5.91666670	    -22.71177275	     -1.93454232	      6.74087551	      0.81931633	      0.85526905	     -0.18961139	     52.47931975	     -7.75355457	     -6.70806130	     53.29718000	     15.89174471	    -26.67732324	      0.00000000	     55.64264078	     -7.43276105	     -0.43457897	     52.18658647	      8.76540339	    -13.30785245	      0.00000000	     -7.10863289	     -1.35144945	     -0.41068840	    222.66722707	   -158.08490935	    189.51167205	     78.73876003	     87.14650825	     36.61290895	    -17.74261616	     31.37436943	     59.92763408	     74.64608275
      5.93333330	    -24.47075379	     -2.50629016	      6.89661913	      0.80204593	      0.81558957	     -0.19767988	     61.94470506	     -8.07887538	     -4.88574672	     65.67970229	     23.93696091	    -27.80243396	      0.00000000	     64.35831064	     -6.69240234	      1.39223346	     63.52922794	     19.09205771	    -13.67965717	      0.00000000	     -8.60624195	     -0.54972850	      0.02020068	    231.77358860	   -155.20669908	    190.33312947	     80.14525694	     86.40903420	     43.21506329	    -17.79224700	     37.60427470	     64.19100038	     75.83669149
      5.95000000	    -25.88852298	     -3.36536463	      7.91896655	      0.79666032	      0.77987148	     -0.19210031	     69.64901079	     -8.50313337	     -4.17637396	     75.72999045	     28.22992774	    -29.47490330	      0.00000000	     72.00757013	     -5.86808486	      3.49515157	     72.83457915	     24.15179967	    -13.70362351	      0.00000000	    -10.31190556	      0.08355710	      0.40674247	    238.78671281	   -152.32671016	    191.06507647	     81.24848989	     85.60046617	     49.46757392	    -16.62214295	     43.29819734	     67.24364163	     76.92302463
      5.96666670	    -27.00768997	     -3.49848592	      8.86122622	      0.78783751	      0.74456314	     -0.19511275	     75.69917071	     -9.10253834	     -2.66790669	     83.26465491	     30.54265239	    -30.35451429	      0.00000000	     78.48917845	     -4.48291190	      4.70924205	     80.75186490	     27.69324136	    -12.71122344	      0.00000000	    -11.89685236	      0.43940207	      1.13532533	    245.11042055	   -148.81374173	    194.42049541	     82.82596325	     84.74890483	     55.89513000	    -14.56704937	     50.34987989	     67.39251156	     78.21381126
      5.98333330	    -28.45440741	     -3.63592469	      9.79398237	      0.77354353	      0.71320286	     -0.19425449	     81.30926066	     -9.61311968	     -1.11553679	     88.84832735	     31.25680357	    -32.07900392	      0.00000000	     84.05078932	     -3.08388420	      5.56218923	     85.94576597	     29.80465163	    -11.42996400	      0.00000000	    -13.14726315	      0.55208596	      2.97536397	    250.89336288	   -143.86841546	    198.77577126	     85.94446418	     83.37030760	     63.45381066	    -10.83720529	     59.57913197	     65.74488518	     79.82704727
      6.00000000	    -30.60304829	     -3.60948428	     10.06950485	      0.77390619	      0.68832585	     -0.19813763	     86.38824241	     -9.62672809	      0.56255236	     92.89000617	     31.92361678	    -32.48549461	      0.00000000	     88.97307259	     -2.40667230	      5.84277642	     89.52072842	     31.19506497	    -10.01685998	      0.00000000	    -13.46592168	      0.57842154	      3.36396648	    255.48283171	   -141.61276069	    203.08962253	     88.88195364	     82.92655417	     67.41334582	     -8.15274531	     64.87448558	     65.10134631	     80.84092416
      6.01666670	    -32.43300841	     -3.22744615	      9.77977373	      0.76846273	      0.65085072	     -0.20917757	     91.56300710	     -9.81000002	      2.77916981	     97.44894393	     32.99076799	    -32.69902431	      0.00000000	     94.07375507	     -1.95081316	      5.39264296	     94.16953634	     33.14525821	     -9.18575620	      0.00000000	    -13.10235668	      0.89143005	      4.42240147	    261.15368266	   -139.08270134	    209.35966612	     91.70141818	     82.47723901	     70.65310911	     -3.94328106	     69.39030362	     62.48634241	     81.80597099
      6.03333330	    -34.48936757	     -2.91514721	      9.05009561	      0.76025271	      0.62375155	     -0.21104163	     97.17143767	     -9.58683411	      4.72053366	    101.53054916	     33.95099728	    -31.89093188	      0.00000000	     99.14560932	     -1.93798709	      4.94918265	     98.32728224	     34.71192049	     -8.97715465	      0.00000000	    -12.64726571	      0.81074424	      5.30409130	    265.62392937	   -137.52312835	    213.79336142	     92.82440791	     81.91436168	     72.51210995	      0.35453443	     71.20656928	     59.05651747	     82.50906320
      6.05000000	    -36.47397756	     -2.60138566	      8.66365774	      0.76368398	      0.59630742	     -0.20988135	    102.06825131	     -9.47064013	      6.26856181	    105.66399827	     35.58475179	    -30.41343524	      0.00000000	    103.89291780	     -2.30261881	      4.52683793	    102.36580690	     35.84640888	     -8.53799506	      0.00000000	    -11.71809244	      0.86020723	      5.96991623	    268.30994221	   -137.04461661	    216.18378698	     95.25383539	     81.33718954	     71.82064982	      4.17612701	     69.46247443	     55.83907423	     82.99467367
